<svg id="Layer_1" data-name="Layer 1" xmlns="http://www.w3.org/2000/svg" viewBox="0 0 756.01 309"><defs><style>.cls-1{fill:#b6222c;}</style></defs><title>Fratello-Logo</title><path class="cls-1" d="M100.54,40.9H56.85c-5.17,0-7,1.9-7,7.26V169a4.67,4.67,0,0,0,4.84,4.93h2.67a5,5,0,0,0,5-5.19V140.84H95.7a4.55,4.55,0,0,0,4.59-4.59v-2.59a4.54,4.54,0,0,0-4.59-4.58H62.38V52.83h38.16a4.44,4.44,0,0,0,4.58-4.5V45.48a4.48,4.48,0,0,0-4.58-4.58"/><path class="cls-1" d="M271.6,48.77h0c-1.47-7.05-6-7.87-9.27-7.87h-3c-1.92,0-7.79,0-9.35,8L225.35,168a4.91,4.91,0,0,0,.89,4.26,4.78,4.78,0,0,0,3.8,1.67h3.19a4.47,4.47,0,0,0,4.45-4l5.65-29.49h34.9l5.63,29.39a4.43,4.43,0,0,0,4.47,4.09h3.19a4.75,4.75,0,0,0,3.77-1.65,5.08,5.08,0,0,0,.92-4.39Zm-26,80.31L260.8,55.94,276,129.08Z"/><path class="cls-1" d="M370.38,40.9H308.12a4.54,4.54,0,0,0-4.59,4.58v2.85a4.5,4.5,0,0,0,4.59,4.5h24.95V169a4.67,4.67,0,0,0,4.84,4.93h2.85a4.63,4.63,0,0,0,4.75-4.93V52.83h24.87a4.49,4.49,0,0,0,4.58-4.5V45.48a4.53,4.53,0,0,0-4.58-4.58"/><path class="cls-1" d="M449.17,40.9H405.65c-5.17,0-7,1.9-7,7.26V166.63c0,5.36,1.84,7.26,7,7.26h43.52a4.44,4.44,0,0,0,4.49-4.58v-2.85a4.4,4.4,0,0,0-4.49-4.5h-38V140.84h37.73a4.54,4.54,0,0,0,4.58-4.59v-2.59a4.53,4.53,0,0,0-4.58-4.58H411.18V52.83h38a4.4,4.4,0,0,0,4.49-4.5V45.48a4.48,4.48,0,0,0-4.49-4.58"/><path class="cls-1" d="M536.76,162H498.85V46.09a4.83,4.83,0,0,0-5-5.19h-2.59a4.67,4.67,0,0,0-4.93,4.93v120.8c0,5.36,1.83,7.26,7,7.26h43.44a4.44,4.44,0,0,0,4.49-4.58v-2.85a4.4,4.4,0,0,0-4.49-4.5"/><path class="cls-1" d="M621.53,169.31v-2.85A4.4,4.4,0,0,0,617,162h-37.9V46.09a4.83,4.83,0,0,0-5-5.19h-2.59a4.67,4.67,0,0,0-4.93,4.93v120.8c0,5.36,1.83,7.26,7,7.26H617a4.44,4.44,0,0,0,4.5-4.58"/><path class="cls-1" d="M197.76,171.53a5.28,5.28,0,0,0,.26-5.05L185.9,136.77a27.36,27.36,0,0,0,13.8-23.67V67.9a27.25,27.25,0,0,0-27.22-27.23h0l-5.73,0c-.85,0-1.66,0-2.48,0h-26a12.65,12.65,0,0,0-4.06.41,4.55,4.55,0,0,0-3.56,4.75V168.62c0,3.64,2.43,5.27,4.84,5.27h2.67a4.68,4.68,0,0,0,5-4.52,6.8,6.8,0,0,0,.06-.9V140.32h29.29c.57,0,1.14,0,1.72-.06l12.07,29.85a5.17,5.17,0,0,0,5,3.54h2.33a4.85,4.85,0,0,0,4.15-2.13m-19.4-44.24a15,15,0,0,1-4.31,1.1c-.52.05-1.05.08-1.57.08H143.53a.28.28,0,0,1-.28-.28V52.81a.28.28,0,0,1,.28-.28h28.95A15.38,15.38,0,0,1,187.84,67.9v45.2a15.34,15.34,0,0,1-9.48,14.19"/><polygon class="cls-1" points="156.96 243.45 156.96 240.89 136.54 240.89 136.54 243.86 152.85 243.86 136.98 268.84 136.98 271 157.57 271 157.57 268.03 141.35 268.03 156.96 243.45"/><path class="cls-1" d="M206.8,240.89,193.29,271h3.89l3.72-8.47H216l3.76,8.47h3.94L210.3,240.89ZM202,259.77l6.43-15.1,6.47,15.1Z"/><path class="cls-1" d="M279.16,242.8c-2-1.43-4.16-1.91-8.7-1.91h-8.53V271h3.63V259.16h5.2c4.2,0,6.39-.49,8.53-2a9.12,9.12,0,0,0,3.32-7.16,9,9,0,0,0-3.45-7.16m-2.45,12.12c-1.62,1-3.28,1.27-6,1.27h-5.16V243.86h5.07c2.76,0,4.42.28,6,1.26a5.68,5.68,0,0,1,2.45,4.92,5.74,5.74,0,0,1-2.4,4.88"/><path class="cls-1" d="M328.34,240.89,314.83,271h3.89l3.72-8.47h15.08l3.76,8.47h3.94l-13.38-30.11Zm-4.81,18.88,6.43-15.1,6.47,15.1Z"/><polygon class="cls-1" points="377.48 243.86 385.44 243.86 385.44 271 389.07 271 389.07 243.86 397.07 243.86 397.07 240.89 377.48 240.89 377.48 243.86"/><polygon class="cls-1" points="435.59 271 453.51 271 453.51 268.03 439.17 268.03 439.17 257.29 453.43 257.29 453.43 254.31 439.17 254.31 439.17 243.86 453.51 243.86 453.51 240.89 435.59 240.89 435.59 271"/><path class="cls-1" d="M513.94,256.43a9.78,9.78,0,0,0-2.5-14c-1.66-1-4-1.54-9.09-1.54h-8.44V271h3.63V243.86h5.07c2.93,0,4.94.12,6.56,1.1a6.94,6.94,0,0,1,3.19,5.81,7.09,7.09,0,0,1-2.45,5.54c-1.75,1.5-4.89,1.54-7.17,1.54h-1.05L510.83,271h3.94l-8-11.27c3-.29,5.29-.86,7.22-3.3"/><polygon class="cls-1" points="552.36 237.22 553.41 239.18 563.91 233.97 562.77 231.73 552.36 237.22"/><rect class="cls-1" x="554.86" y="240.89" width="3.59" height="30.11"/><path class="cls-1" d="M610.56,240.89,597,271h3.9l3.71-8.47h15.09L623.5,271h3.93l-13.38-30.11Zm-4.81,18.88,6.42-15.1,6.47,15.1Z"/><path class="cls-1" d="M679.44,39h-.13c-32.1,0-34.76,37.45-34.72,63.61v4.74c0,2.13,0,4.22.07,6.25.19,19.31.34,34.57,4.58,45.07,4.69,11.6,14,16.78,30.07,16.78h.13c16.11,0,25.38-5.18,30.07-16.78,4.24-10.5,4.39-25.76,4.58-45.07,0-2,0-4.12.07-6.25v-4.74c0-26.16-2.62-63.61-34.73-63.61m19.12,113.4c-2.89,8.14-8.44,11.46-19.18,11.46s-16.3-3.32-19.19-11.46c-1.48-4.17-2.22-9.49-2.6-15.8h43.57c-.37,6.31-1.12,11.63-2.6,15.8m3-38.34c0,3.49,0,6.83,0,10H657.23c0-3.18,0-6.52,0-10V99.57c0-21.65,5.24-49,22.17-49s22.19,27.34,22.16,49v14.49Z"/></svg>